<?xml version="1.0" standalone="no"?>
<!DOCTYPE svg PUBLIC "-//W3C//DTD SVG 20010904//EN"
 "http://www.w3.org/TR/2001/REC-SVG-20010904/DTD/svg10.dtd">
<svg version="1.0" xmlns="http://www.w3.org/2000/svg"
 width="500.000000pt" height="500.000000pt" viewBox="0 0 500.000000 500.000000"
 preserveAspectRatio="xMidYMid meet">
<metadata>
Created by potrace 1.11, written by Peter Selinger 2001-2013
</metadata>
<g transform="translate(0.000000,500.000000) scale(0.100000,-0.100000)"
fill="#000000" stroke="none">
<path d="M0 2500 l0 -2500 2500 0 2500 0 0 2500 0 2500 -2500 0 -2500 0 0
-2500z m2308 -1347 l2 -673 -55 0 -55 0 0 56 0 56 -41 -36 c-78 -66 -121 -81
-239 -81 -97 0 -109 2 -158 29 -141 78 -215 233 -215 446 0 213 74 368 215
446 49 27 61 29 158 29 121 0 162 -15 238 -88 l42 -41 0 267 0 268 53 -3 52
-3 3 -672z m-1108 595 c0 -2 -119 -311 -264 -688 l-263 -685 -51 -3 c-29 -2
-52 -1 -52 1 0 5 504 1319 520 1355 8 19 17 22 60 22 27 0 50 -1 50 -2z m2012
-347 c68 -26 132 -86 161 -149 21 -44 22 -67 28 -367 4 -202 10 -333 17 -355
7 -19 12 -38 12 -42 0 -5 -27 -8 -59 -8 l-59 0 -11 50 c-6 28 -11 58 -11 67 0
10 -13 4 -41 -22 -23 -20 -71 -51 -108 -69 -62 -29 -73 -31 -176 -31 -123 0
-170 15 -237 74 -104 91 -108 270 -8 369 81 81 195 112 419 112 l154 0 -5 85
c-4 74 -8 91 -34 127 -94 134 -375 126 -453 -12 -12 -21 -21 -45 -21 -54 0
-13 -11 -16 -55 -16 -50 0 -55 2 -55 23 1 90 121 205 247 237 67 16 231 6 295
-19z m1087 13 c68 -20 140 -86 172 -157 24 -51 24 -58 27 -414 l3 -363 -55 0
-55 0 -3 353 c-3 385 -3 382 -66 450 -29 30 -105 57 -162 57 -97 0 -202 -60
-259 -148 l-31 -49 0 -331 0 -332 -60 0 -60 0 0 470 0 470 55 0 55 0 0 -84 0
-84 68 67 c82 83 143 110 248 110 39 1 94 -6 123 -15z"/>
<path d="M1857 1328 c-55 -15 -129 -86 -160 -156 -34 -74 -48 -195 -36 -302
19 -166 88 -268 204 -299 116 -31 237 12 308 111 l27 36 0 224 0 224 -30 47
c-63 100 -191 147 -313 115z"/>
<path d="M3000 940 c-161 -21 -243 -86 -243 -196 0 -207 315 -251 483 -67 l50
55 0 109 0 109 -117 -1 c-65 -1 -143 -5 -173 -9z"/>
</g>
</svg>
